<svg role="img" viewBox="0 0 30 30" xmlns="http://www.w3.org/2000/svg" id="Tryhackme--Streamline-Simple-Icons" height="30" width="30">
  <desc>
    Tryhackme Streamline Icon: https://streamlinehq.com
  </desc>
  <title>TryHackMe</title>
  <path d="M13.38125 0C9.425 0 6.1275 2.85625 5.43625 6.6137500000000005a5.65625 5.65625 0 0 0 -5.13375 5.625 5.65625 5.65625 0 0 0 5.6499999999999995 5.6499999999999995h8.45125a0.78125 0.78125 0 1 0 0 -1.5625H5.95125a4.0912500000000005 4.0912500000000005 0 0 1 -4.0875 -4.0875A4.0912500000000005 4.0912500000000005 0 0 1 8.2375 8.85a0.78125 0.78125 0 0 0 0.875 -1.29375 5.61 5.61 0 0 0 -2.1 -0.8624999999999999 6.52875 6.52875 0 0 1 6.37 -5.13 6.52625 6.52625 0 0 1 6.4675 5.7125 5.61125 5.61125 0 0 0 -0.61 0.38125 0.78125 0.78125 0 1 0 0.91375 1.2662499999999999 4.05625 4.05625 0 0 1 2.3899999999999997 -0.77 4.0975 4.0975 0 0 1 4.00375 3.2624999999999997 0.78125 0.78125 0 0 0 1.53125 -0.31375 5.666250000000001 5.666250000000001 0 0 0 -5.535 -4.5125 5.675 5.675 0 0 0 -1.1975 0.13125C20.695 2.9099999999999997 17.375 0 13.38125 0zm6.49 13.3a1.15625 1.15625 0 0 0 -0.5775 0.135 1.14125 1.14125 0 0 0 -0.39125 0.3625 1.5875 1.5875 0 0 0 -0.21875 0.53375 2.9875000000000003 2.9875000000000003 0 0 0 -0.0675 0.6425000000000001c0 0.22625 0.0225 0.44125 0.0675 0.64625 0.045 0.20500000000000002 0.11875 0.38375 0.21875 0.5375a1.12375 1.12375 0 0 0 0.39125 0.37124999999999997c0.15875 0.09125 0.35125000000000006 0.1375 0.5775 0.1375 0.22499999999999998 0 0.41750000000000004 -0.04625 0.5750000000000001 -0.1375a1.12125 1.12125 0 0 0 0.38625 -0.37c0.1 -0.155 0.17125 -0.33375 0.21625 -0.53875 0.045 -0.20500000000000002 0.0675 -0.42000000000000004 0.0675 -0.64625 0 -0.22499999999999998 -0.0225 -0.43999999999999995 -0.0675 -0.6425000000000001a1.5887499999999999 1.5887499999999999 0 0 0 -0.21625 -0.5325 1.12625 1.12625 0 0 0 -0.38625 -0.36374999999999996 1.14625 1.14625 0 0 0 -0.5750000000000001 -0.135zm8.1075 0a1.15625 1.15625 0 0 0 -0.5775 0.135 1.14125 1.14125 0 0 0 -0.39125 0.3625 1.5875 1.5875 0 0 0 -0.21875 0.53375 2.9875000000000003 2.9875000000000003 0 0 0 -0.06625 0.6425000000000001c0 0.22625 0.02125 0.44125 0.06625 0.64625 0.045 0.20500000000000002 0.11875 0.38375 0.21875 0.5375a1.12375 1.12375 0 0 0 0.39125 0.37124999999999997c0.15875 0.09125 0.35125000000000006 0.1375 0.5775 0.1375 0.22499999999999998 0 0.41750000000000004 -0.04625 0.5750000000000001 -0.1375a1.12125 1.12125 0 0 0 0.3875 -0.37c0.0975 -0.155 0.17 -0.33375 0.21499999999999997 -0.53875 0.045 -0.20500000000000002 0.0675 -0.42000000000000004 0.0675 -0.64625 0 -0.22499999999999998 -0.0225 -0.43999999999999995 -0.0675 -0.6425000000000001a1.5887499999999999 1.5887499999999999 0 0 0 -0.21625 -0.5325 1.12625 1.12625 0 0 0 -0.385 -0.36374999999999996 1.145 1.145 0 0 0 -0.57625 -0.135zm-10.67125 0.085 -1.05 0.7725 0.39125 0.5375 0.595 -0.45999999999999996v2.34625h0.7537499999999999v-3.19625zm8.1075 0 -1.05125 0.7725 0.3925 0.5375 0.59625 -0.45999999999999996v2.34625h0.7537499999999999v-3.19625zm-5.543749999999999 0.55625c0.1 0 0.17875 0.035 0.24125000000000002 0.10500000000000001 0.0625 0.07125000000000001 0.10874999999999999 0.15875 0.14250000000000002 0.2625 0.0325 0.10375000000000001 0.05499999999999999 0.21625 0.0675 0.33625000000000005a3.17625 3.17625 0 0 1 0 0.66625c-0.0125 0.12125 -0.035 0.23375 -0.0675 0.3375a0.73 0.73 0 0 1 -0.14250000000000002 0.2625 0.30374999999999996 0.30374999999999996 0 0 1 -0.24125000000000002 0.10625000000000001 0.31 0.31 0 0 1 -0.24375000000000002 -0.10749999999999998 0.73 0.73 0 0 1 -0.1475 -0.26125 1.5562500000000001 1.5562500000000001 0 0 1 -0.07 -0.3375 3.30625 3.30625 0 0 1 0 -0.66625c0.0125 -0.12 0.036250000000000004 -0.23249999999999998 0.07 -0.3375a0.72875 0.72875 0 0 1 0.1475 -0.26125 0.3125 0.3125 0 0 1 0.24375000000000002 -0.10500000000000001zm8.1075 0c0.1 0 0.18 0.035 0.24125000000000002 0.10500000000000001 0.0625 0.07125000000000001 0.10874999999999999 0.15875 0.14250000000000002 0.2625 0.03375 0.10375000000000001 0.05499999999999999 0.21625 0.0675 0.33625000000000005a3.17625 3.17625 0 0 1 0 0.66625c-0.0125 0.12125 -0.03375 0.23375 -0.0675 0.3375a0.73 0.73 0 0 1 -0.14250000000000002 0.2625 0.30374999999999996 0.30374999999999996 0 0 1 -0.24125000000000002 0.10625000000000001 0.31125 0.31125 0 0 1 -0.24375000000000002 -0.10749999999999998 0.72625 0.72625 0 0 1 -0.14625000000000002 -0.26125 1.5562500000000001 1.5562500000000001 0 0 1 -0.07 -0.3375 3.3024999999999998 3.3024999999999998 0 0 1 0 -0.66625c0.0125 -0.12 0.035 -0.23249999999999998 0.07 -0.3375a0.725 0.725 0 0 1 0.14625000000000002 -0.26125 0.3125 0.3125 0 0 1 0.24375000000000002 -0.10500000000000001zm-2.7387499999999996 4.387499999999999a1.1625 1.1625 0 0 0 -0.57875 0.13625 1.135 1.135 0 0 0 -0.39 0.36374999999999996c-0.1 0.1525 -0.17375000000000002 0.32875 -0.21875 0.5325a2.97875 2.97875 0 0 0 -0.0675 0.6425000000000001c0 0.22499999999999998 0.0225 0.44125 0.0675 0.645 0.045 0.20500000000000002 0.1175 0.385 0.21875 0.54a1.1375 1.1375 0 0 0 0.39 0.37 1.1500000000000001 1.1500000000000001 0 0 0 0.57875 0.1375c0.22499999999999998 0 0.41625 -0.04625 0.5750000000000001 -0.1375a1.115 1.115 0 0 0 0.385 -0.37 1.6500000000000001 1.6500000000000001 0 0 0 0.21749999999999997 -0.54c0.045 -0.20375000000000001 0.0675 -0.41875 0.0675 -0.645 0 -0.22499999999999998 -0.0225 -0.43999999999999995 -0.0675 -0.6425000000000001a1.5925 1.5925 0 0 0 -0.21749999999999997 -0.5325 1.1125 1.1125 0 0 0 -0.38625 -0.36374999999999996 1.1475 1.1475 0 0 0 -0.5750000000000001 -0.135zm-8.0025 0.08750000000000001 -1.05125 0.77125 0.3925 0.5375 0.595 -0.46125v2.3474999999999997h0.755v-3.19625zm2.65625 0 -1.05125 0.77125 0.3925 0.5375 0.59625 -0.46125v2.3474999999999997h0.7537499999999999v-3.19625zm2.645 0 -1.05 0.77125 0.39125 0.5375 0.59625 -0.46125v2.3474999999999997h0.7537499999999999v-3.19625zm2.7 0.55375c0.1 0 0.18 0.035 0.2425 0.10625000000000001a0.75625 0.75625 0 0 1 0.14250000000000002 0.2625c0.0325 0.10375000000000001 0.05499999999999999 0.21499999999999997 0.06625 0.33625000000000005a3.2987499999999996 3.2987499999999996 0 0 1 0 0.665 1.6 1.6 0 0 1 -0.06625 0.3375 0.73125 0.73125 0 0 1 -0.14250000000000002 0.2625 0.305 0.305 0 0 1 -0.24125000000000002 0.10625000000000001 0.3125 0.3125 0 0 1 -0.245 -0.10625000000000001 0.73625 0.73625 0 0 1 -0.14625000000000002 -0.2625 1.5562500000000001 1.5562500000000001 0 0 1 -0.07 -0.3375 3.24625 3.24625 0 0 1 0 -0.665c0.0125 -0.12125 0.035 -0.23249999999999998 0.07 -0.3375a0.73625 0.73625 0 0 1 0.14625000000000002 -0.26125 0.31125 0.31125 0 0 1 0.245 -0.10625000000000001zm-8.41125 3.84125a0.8450000000000001 0.8450000000000001 0 0 0 -0.41875 0.0975 0.82625 0.82625 0 0 0 -0.28375 0.26375 1.1375 1.1375 0 0 0 -0.15875 0.3875c-0.03375 0.1475 -0.05 0.3025 -0.05 0.46625s0.01625 0.32 0.05 0.46875a1.1625 1.1625 0 0 0 0.15875 0.39125 0.8125 0.8125 0 0 0 0.28375 0.26875c0.11499999999999999 0.06625 0.255 0.1 0.41875 0.1a0.8187500000000001 0.8187500000000001 0 0 0 0.41750000000000004 -0.1 0.8125 0.8125 0 0 0 0.28125 -0.26875c0.07125000000000001 -0.11249999999999999 0.125 -0.2425 0.15625 -0.39125a2.1875 2.1875 0 0 0 0.05 -0.46875c0 -0.1625 -0.0175 -0.31875 -0.05 -0.46625a1.16375 1.16375 0 0 0 -0.15625 -0.3875 0.8225 0.8225 0 0 0 -0.28125 -0.2625 0.83375 0.83375 0 0 0 -0.41750000000000004 -0.1zm3.8575 0a0.84375 0.84375 0 0 0 -0.42000000000000004 0.0975 0.82625 0.82625 0 0 0 -0.28250000000000003 0.26375 1.13375 1.13375 0 0 0 -0.15875 0.3875 2.1125 2.1125 0 0 0 -0.05 0.46625c0 0.16375 0.01625 0.32 0.05 0.46875a1.1600000000000001 1.1600000000000001 0 0 0 0.15875 0.39125c0.07250000000000001 0.11249999999999999 0.1675 0.2025 0.28250000000000003 0.26875 0.11624999999999999 0.06625 0.25625 0.1 0.42000000000000004 0.1a0.8187500000000001 0.8187500000000001 0 0 0 0.41750000000000004 -0.1 0.8125 0.8125 0 0 0 0.28 -0.26875c0.07250000000000001 -0.11249999999999999 0.125 -0.2425 0.1575 -0.39125a2.19 2.19 0 0 0 0 -0.935 1.1749999999999998 1.1749999999999998 0 0 0 -0.1575 -0.3875 0.82125 0.82125 0 0 0 -0.28 -0.2625 0.83375 0.83375 0 0 0 -0.41750000000000004 -0.1zm6.385 0a0.84375 0.84375 0 0 0 -0.42000000000000004 0.0975 0.82625 0.82625 0 0 0 -0.28250000000000003 0.26375 1.1375 1.1375 0 0 0 -0.15875 0.3875c-0.03375 0.1475 -0.05 0.3025 -0.05 0.46625s0.01625 0.32 0.05 0.46875a1.16375 1.16375 0 0 0 0.15875 0.39125c0.07250000000000001 0.11249999999999999 0.1675 0.2025 0.28250000000000003 0.26875 0.11624999999999999 0.06625 0.25625 0.1 0.42000000000000004 0.1 0.1625 0 0.30374999999999996 -0.03375 0.41750000000000004 -0.1a0.8125 0.8125 0 0 0 0.28 -0.26875c0.07250000000000001 -0.11249999999999999 0.125 -0.2425 0.1575 -0.39125a2.1875 2.1875 0 0 0 0.05 -0.46875c0 -0.1625 -0.0175 -0.31875 -0.05 -0.46625a1.17875 1.17875 0 0 0 -0.1575 -0.3875 0.82125 0.82125 0 0 0 -0.28 -0.2625 0.8350000000000001 0.8350000000000001 0 0 0 -0.41750000000000004 -0.1zm-8.3225 0.0625 -0.7625 0.56 0.28375 0.38875 0.4325 -0.3325v1.7025000000000001h0.5475v-2.3200000000000003zm3.835 0 -0.7625 0.56 0.28375 0.38875 0.4325 -0.3325v1.7025000000000001h0.5475v-2.3200000000000003zm6.385 0 -0.7637499999999999 0.56 0.28500000000000003 0.38875 0.4325 -0.3325v1.7025000000000001h0.5475v-2.3200000000000003zm-12.14 0.4025c0.07250000000000001 0 0.13125 0.025 0.17500000000000002 0.0775a0.52625 0.52625 0 0 1 0.10375000000000001 0.18875 1.2 1.2 0 0 1 0.05 0.245 2.415 2.415 0 0 1 0 0.48250000000000004 1.1925 1.1925 0 0 1 -0.05 0.24625000000000002 0.52625 0.52625 0 0 1 -0.10375000000000001 0.19 0.21999999999999997 0.21999999999999997 0 0 1 -0.17500000000000002 0.07625 0.22499999999999998 0.22499999999999998 0 0 1 -0.17625 -0.075 0.53375 0.53375 0 0 1 -0.10625000000000001 -0.19125 1.1087500000000001 1.1087500000000001 0 0 1 -0.051250000000000004 -0.24625000000000002 2.45 2.45 0 0 1 0 -0.48250000000000004 1.11625 1.11625 0 0 1 0.05 -0.245 0.525 0.525 0 0 1 0.10749999999999998 -0.18875 0.22625 0.22625 0 0 1 0.17625 -0.0775zm3.8575 0c0.07250000000000001 0 0.13 0.025 0.17500000000000002 0.0775a0.52625 0.52625 0 0 1 0.10250000000000001 0.18875 1.1749999999999998 1.1749999999999998 0 0 1 0.05 0.245 2.3825 2.3825 0 0 1 0 0.48250000000000004 1.1625 1.1625 0 0 1 -0.05 0.24625000000000002 0.52625 0.52625 0 0 1 -0.10250000000000001 0.19 0.21999999999999997 0.21999999999999997 0 0 1 -0.17500000000000002 0.07625 0.22499999999999998 0.22499999999999998 0 0 1 -0.17625 -0.075 0.525 0.525 0 0 1 -0.10749999999999998 -0.19125 1.0574999999999999 1.0574999999999999 0 0 1 -0.05 -0.24625000000000002 2.4562500000000003 2.4562500000000003 0 0 1 -0.013749999999999998 -0.24375000000000002c0 -0.07125000000000001 0.005 -0.15125 0.0125 -0.23875000000000002a1.06125 1.06125 0 0 1 0.051250000000000004 -0.245 0.525 0.525 0 0 1 0.10749999999999998 -0.18875 0.22749999999999998 0.22749999999999998 0 0 1 0.17625 -0.0775zm6.385 0c0.07250000000000001 0 0.13 0.025 0.17500000000000002 0.0775a0.52625 0.52625 0 0 1 0.10250000000000001 0.18875 1.1500000000000001 1.1500000000000001 0 0 1 0.05 0.245 2.4537500000000003 2.4537500000000003 0 0 1 0 0.48250000000000004 1.17875 1.17875 0 0 1 -0.05 0.24625000000000002 0.52625 0.52625 0 0 1 -0.10250000000000001 0.19 0.22125 0.22125 0 0 1 -0.17500000000000002 0.07625 0.22499999999999998 0.22499999999999998 0 0 1 -0.1775 -0.075 0.54625 0.54625 0 0 1 -0.10625000000000001 -0.19125 1.1875 1.1875 0 0 1 -0.05 -0.24625000000000002 2.4562500000000003 2.4562500000000003 0 0 1 -0.013749999999999998 -0.24375000000000002c0 -0.07125000000000001 0.005 -0.15125 0.0125 -0.23875000000000002a1.19875 1.19875 0 0 1 0.05 -0.245 0.5874999999999999 0.5874999999999999 0 0 1 0.10749999999999998 -0.18875 0.22625 0.22625 0 0 1 0.1775 -0.0775zm-2.105 2.2675a0.84375 0.84375 0 0 0 -0.42000000000000004 0.09875 0.8250000000000001 0.8250000000000001 0 0 0 -0.28375 0.2625 1.1375 1.1375 0 0 0 -0.15875 0.3875 2.1637500000000003 2.1637500000000003 0 0 0 0 0.935 1.1737499999999998 1.1737499999999998 0 0 0 0.15875 0.3925c0.07375 0.11249999999999999 0.1675 0.2025 0.28375 0.26875 0.11624999999999999 0.06625 0.25625 0.1 0.42000000000000004 0.1a0.8250000000000001 0.8250000000000001 0 0 0 0.41750000000000004 -0.1 0.81 0.81 0 0 0 0.28 -0.26875c0.07250000000000001 -0.11249999999999999 0.125 -0.24375000000000002 0.1575 -0.3925a2.17125 2.17125 0 0 0 -0.00125 -0.93375 1.1600000000000001 1.1600000000000001 0 0 0 -0.15625 -0.3875 0.8125 0.8125 0 0 0 -0.28 -0.26375 0.8350000000000001 0.8350000000000001 0 0 0 -0.41750000000000004 -0.09875zm3.8287500000000003 0a0.8450000000000001 0.8450000000000001 0 0 0 -0.42000000000000004 0.09875 0.8300000000000001 0.8300000000000001 0 0 0 -0.28375 0.2625 1.1325 1.1325 0 0 0 -0.15875 0.3875 2.175 2.175 0 0 0 0 0.935 1.1700000000000002 1.1700000000000002 0 0 0 0.15875 0.3925 0.8250000000000001 0.8250000000000001 0 0 0 0.28375 0.26875c0.11499999999999999 0.06625 0.255 0.1 0.42000000000000004 0.1a0.8175 0.8175 0 0 0 0.41750000000000004 -0.1 0.81 0.81 0 0 0 0.27875 -0.26875c0.07250000000000001 -0.11249999999999999 0.125 -0.24375000000000002 0.1575 -0.3925a2.175 2.175 0 0 0 0 -0.93375 1.1600000000000001 1.1600000000000001 0 0 0 -0.1575 -0.3875 0.8125 0.8125 0 0 0 -0.27875 -0.26375 0.8325 0.8325 0 0 0 -0.41750000000000004 -0.09875zm-1.93125 0.0625 -0.7637499999999999 0.56 0.28500000000000003 0.39 0.4325 -0.33375v1.7037499999999999h0.5475v-2.3200000000000003zm-1.8975 0.40375c0.07125000000000001 0 0.13 0.025 0.17500000000000002 0.07625a0.525 0.525 0 0 1 0.10250000000000001 0.19 1.1375 1.1375 0 0 1 0.05 0.24375000000000002 2.4575 2.4575 0 0 1 0 0.48375 1.18875 1.18875 0 0 1 -0.05 0.24625000000000002 0.52625 0.52625 0 0 1 -0.10250000000000001 0.19 0.22125 0.22125 0 0 1 -0.17500000000000002 0.075 0.22499999999999998 0.22499999999999998 0 0 1 -0.1775 -0.075 0.535 0.535 0 0 1 -0.10625000000000001 -0.19 1.1425 1.1425 0 0 1 -0.05 -0.24625000000000002 2.45 2.45 0 0 1 -0.013749999999999998 -0.24375000000000002c0 -0.07250000000000001 0.00375 -0.1525 0.0125 -0.24a1.15375 1.15375 0 0 1 0.051250000000000004 -0.24375000000000002c0.025 -0.075 0.06 -0.1375 0.10625000000000001 -0.19a0.22625 0.22625 0 0 1 0.1775 -0.07625zm3.8287500000000003 0c0.07125000000000001 0 0.13 0.025 0.17500000000000002 0.07625a0.525 0.525 0 0 1 0.10250000000000001 0.19 1.1749999999999998 1.1749999999999998 0 0 1 0.05 0.24375000000000002 2.3874999999999997 2.3874999999999997 0 0 1 0 0.48375 1.1625 1.1625 0 0 1 -0.05 0.24625000000000002 0.5275 0.5275 0 0 1 -0.10375000000000001 0.19 0.21875 0.21875 0 0 1 -0.17500000000000002 0.075 0.22499999999999998 0.22499999999999998 0 0 1 -0.17625 -0.075 0.5287499999999999 0.5287499999999999 0 0 1 -0.10625000000000001 -0.19 1.13375 1.13375 0 0 1 -0.05 -0.24625000000000002 2.4375 2.4375 0 0 1 0 -0.48375 1.14375 1.14375 0 0 1 0.05 -0.24375000000000002c0.025 -0.075 0.06 -0.1375 0.10625000000000001 -0.19a0.22749999999999998 0.22749999999999998 0 0 1 0.1775 -0.07625zm-12.14125 0.23125a0.58125 0.58125 0 0 0 -0.29000000000000004 0.06875 0.5700000000000001 0.5700000000000001 0 0 0 -0.19625 0.1825 0.78375 0.78375 0 0 0 -0.11124999999999999 0.26875 1.46 1.46 0 0 0 -0.03375 0.32375c0 0.11249999999999999 0.01125 0.22125 0.03375 0.325a0.81 0.81 0 0 0 0.11124999999999999 0.27c0.05 0.07875 0.11624999999999999 0.14 0.19625 0.18625a0.57375 0.57375 0 0 0 0.29000000000000004 0.07c0.11249999999999999 0 0.21000000000000002 -0.025 0.28875 -0.07a0.5625 0.5625 0 0 0 0.195 -0.18625 0.8375 0.8375 0 0 0 0.10874999999999999 -0.27125 1.5225 1.5225 0 0 0 0 -0.6475 0.8087500000000001 0.8087500000000001 0 0 0 -0.10874999999999999 -0.26875 0.56 0.56 0 0 0 -0.195 -0.1825 0.5725 0.5725 0 0 0 -0.28750000000000003 -0.06875zm1.315 0.043750000000000004 -0.5287499999999999 0.3875 0.1975 0.27125 0.3 -0.23125v1.18h0.37875v-1.6075zm-1.315 0.28c0.05 0 0.09125 0.0175 0.12125 0.052500000000000005a0.355 0.355 0 0 1 0.07125000000000001 0.13125 0.8624999999999999 0.8624999999999999 0 0 1 0.035 0.17c0.005 0.06125 0.00875 0.11499999999999999 0.00875 0.16625 0 0.05 -0.00375 0.10749999999999998 -0.00875 0.16875a0.8550000000000001 0.8550000000000001 0 0 1 -0.035 0.17 0.35624999999999996 0.35624999999999996 0 0 1 -0.07125000000000001 0.13125 0.15375 0.15375 0 0 1 -0.12125 0.05374999999999999 0.15625 0.15625 0 0 1 -0.1225 -0.05374999999999999 0.3725 0.3725 0 0 1 -0.07375 -0.13125 0.765 0.765 0 0 1 -0.035 -0.17 1.7374999999999998 1.7374999999999998 0 0 1 0 -0.335 0.775 0.775 0 0 1 0.035 -0.17 0.37124999999999997 0.37124999999999997 0 0 1 0.075 -0.13125 0.15625 0.15625 0 0 1 0.12125 -0.052500000000000005zm4.71875 1.7425a0.57875 0.57875 0 0 0 -0.29000000000000004 0.0675 0.5650000000000001 0.5650000000000001 0 0 0 -0.19625 0.1825 0.77625 0.77625 0 0 0 -0.10999999999999999 0.2675 1.4874999999999998 1.4874999999999998 0 0 0 0 0.64875 0.80125 0.80125 0 0 0 0.10999999999999999 0.27125 0.5750000000000001 0.5750000000000001 0 0 0 0.19625 0.1875 0.5725 0.5725 0 0 0 0.29000000000000004 0.0675 0.5675 0.5675 0 0 0 0.29000000000000004 -0.06875 0.5625 0.5625 0 0 0 0.19375 -0.18625 0.8300000000000001 0.8300000000000001 0 0 0 0.10874999999999999 -0.27125 1.48625 1.48625 0 0 0 0 -0.64875 0.8025 0.8025 0 0 0 -0.10874999999999999 -0.2675 0.5575 0.5575 0 0 0 -0.19375 -0.1825 0.57375 0.57375 0 0 0 -0.29000000000000004 -0.0675zm1.315 0.0425 -0.5287499999999999 0.3875 0.1975 0.27 0.3 -0.23125v1.18125h0.37875V28.35zm-1.315 0.27875c0.05 0 0.09125 0.0175 0.1225 0.05374999999999999a0.375 0.375 0 0 1 0.07125000000000001 0.13125 0.80375 0.80375 0 0 1 0.03375 0.16875 1.6375000000000002 1.6375000000000002 0 0 1 0 0.335 0.8175 0.8175 0 0 1 -0.03375 0.17125 0.38375 0.38375 0 0 1 -0.07125000000000001 0.13125 0.155 0.155 0 0 1 -0.1225 0.052500000000000005 0.15625 0.15625 0 0 1 -0.1225 -0.052500000000000005 0.36624999999999996 0.36624999999999996 0 0 1 -0.07375 -0.13125 0.7725 0.7725 0 0 1 -0.035 -0.17125 1.705 1.705 0 0 1 0 -0.335 0.765 0.765 0 0 1 0.035 -0.16875 0.35874999999999996 0.35874999999999996 0 0 1 0.075 -0.13125 0.15375 0.15375 0 0 1 0.12125 -0.05374999999999999z" fill="#ffe9ea" stroke-width="1.25"></path>
</svg>